<svg width="25" height="24" viewBox="0 0 25 24" fill="none" xmlns="http://www.w3.org/2000/svg">
<g opacity="0.7" clip-path="url(#clip0_1_234)">
<path d="M1.6701 5.53843C1.6701 4.46736 2.09558 3.44017 2.85294 2.68281C3.6103 1.92545 4.6375 1.49997 5.70857 1.49997H12.1701C13.2412 1.49997 14.2684 1.92545 15.0257 2.68281C15.7831 3.44017 16.2086 4.46736 16.2086 5.53843V6.34612H14.5932V5.53843C14.5932 4.89579 14.3379 4.27947 13.8835 3.82506C13.4291 3.37064 12.8127 3.11535 12.1701 3.11535H5.70857C5.06593 3.11535 4.44961 3.37064 3.99519 3.82506C3.54078 4.27947 3.28549 4.89579 3.28549 5.53843V12C3.28549 12.6426 3.54078 13.2589 3.99519 13.7133C4.44961 14.1678 5.06593 14.423 5.70857 14.423H14.7305C14.921 13.8841 15.2959 13.4299 15.789 13.1407C16.282 12.8515 16.8614 12.7459 17.4247 12.8426C17.9881 12.9392 18.4991 13.2319 18.8676 13.6689C19.236 14.106 19.4381 14.6591 19.4381 15.2307C19.4381 15.8023 19.236 16.3555 18.8676 16.7925C18.4991 17.2296 17.9881 17.5223 17.4247 17.6189C16.8614 17.7156 16.282 17.61 15.789 17.3207C15.2959 17.0315 14.921 16.5773 14.7305 16.0384H5.70857C4.6375 16.0384 3.6103 15.613 2.85294 14.8556C2.09558 14.0982 1.6701 13.071 1.6701 12V5.53843ZM16.2086 15.2307C16.2086 15.445 16.2937 15.6504 16.4451 15.8019C16.5966 15.9533 16.802 16.0384 17.0163 16.0384C17.2305 16.0384 17.4359 15.9533 17.5874 15.8019C17.7389 15.6504 17.8239 15.445 17.8239 15.2307C17.8239 15.0165 17.7389 14.8111 17.5874 14.6596C17.4359 14.5081 17.2305 14.423 17.0163 14.423C16.802 14.423 16.5966 14.5081 16.4451 14.6596C16.2937 14.8111 16.2086 15.0165 16.2086 15.2307ZM9.74703 17.6538V18.4615C9.74703 19.5326 10.1725 20.5598 10.9299 21.3171C11.6872 22.0745 12.7144 22.5 13.7855 22.5H20.247C21.3181 22.5 22.3453 22.0745 23.1026 21.3171C23.86 20.5598 24.2855 19.5326 24.2855 18.4615V12C24.2855 10.9289 23.86 9.9017 23.1026 9.14435C22.3453 8.38699 21.3181 7.96151 20.247 7.96151H11.2251C11.0346 7.4226 10.6597 6.96841 10.1666 6.67919C9.67362 6.38997 9.09422 6.28436 8.53086 6.38102C7.9675 6.47768 7.45644 6.77038 7.08802 7.2074C6.7196 7.64442 6.51753 8.19761 6.51753 8.7692C6.51753 9.34079 6.7196 9.89398 7.08802 10.331C7.45644 10.768 7.9675 11.0607 8.53086 11.1574C9.09422 11.254 9.67362 11.1484 10.1666 10.8592C10.6597 10.57 11.0346 10.1158 11.2251 9.57689H20.247C20.8897 9.57689 21.506 9.83218 21.9604 10.2866C22.4148 10.741 22.6701 11.3573 22.6701 12V18.4615C22.6701 19.1041 22.4148 19.7205 21.9604 20.1749C21.506 20.6293 20.8897 20.8846 20.247 20.8846H13.7855C13.1428 20.8846 12.5265 20.6293 12.0721 20.1749C11.6177 19.7205 11.3624 19.1041 11.3624 18.4615V17.6538H9.74703ZM8.93933 7.96151C9.15355 7.96151 9.35899 8.0466 9.51046 8.19808C9.66193 8.34955 9.74703 8.55499 9.74703 8.7692C9.74703 8.98341 9.66193 9.18885 9.51046 9.34032C9.35899 9.4918 9.15355 9.57689 8.93933 9.57689C8.72512 9.57689 8.51968 9.4918 8.36821 9.34032C8.21674 9.18885 8.13164 8.98341 8.13164 8.7692C8.13164 8.55499 8.21674 8.34955 8.36821 8.19808C8.51968 8.0466 8.72512 7.96151 8.93933 7.96151Z" fill="#0077D7"/>
</g>
<defs>
<clipPath id="clip0_1_234">
<rect width="24" height="24" fill="white" transform="translate(0.977783)"/>
</clipPath>
</defs>
</svg>
