<svg width="25" height="24" viewBox="0 0 25 24" fill="none" xmlns="http://www.w3.org/2000/svg">
<g opacity="0.7">
<path fill-rule="evenodd" clip-rule="evenodd" d="M8.6729 13.3909C8.02814 13.3909 7.50433 12.8671 7.50433 12.2223C7.50433 11.5795 8.02814 11.0557 8.6729 11.0557C9.31767 11.0557 9.84148 11.5795 9.84148 12.2223C9.84148 12.8671 9.31767 13.3909 8.6729 13.3909ZM13.216 13.3909C12.5712 13.3909 12.0474 12.8671 12.0474 12.2224C12.0474 11.5795 12.5712 11.0557 13.216 11.0557C13.8608 11.0557 14.3846 11.5795 14.3846 12.2224C14.3846 12.8671 13.8608 13.3909 13.216 13.3909ZM16.5899 12.2224C16.5899 12.8671 17.1137 13.3909 17.7585 13.3909C18.4032 13.3909 18.927 12.8671 18.927 12.2224C18.927 11.5795 18.4032 11.0557 17.7585 11.0557C17.1137 11.0557 16.5899 11.5795 16.5899 12.2224Z" fill="#200E32"/>
<path fill-rule="evenodd" clip-rule="evenodd" d="M12.9978 1.99998C7.18778 1.99998 2.97778 6.7461 2.97778 12.015C2.97778 13.6975 3.46778 15.4291 4.32778 17.0115C4.48778 17.2729 4.50778 17.6024 4.39778 17.9139L3.72778 20.1572C3.57778 20.698 4.03778 21.0976 4.54778 20.9374L6.56778 20.3375C7.11778 20.1572 7.54778 20.3866 8.05778 20.698C9.51778 21.5583 11.3378 22 12.9778 22C17.9378 22 22.9778 18.1642 22.9778 11.985C22.9778 6.65597 18.6778 1.99998 12.9978 1.99998Z" stroke="#200E32" stroke-width="1.5" stroke-linecap="round" stroke-linejoin="round"/>
</g>
</svg>
