<svg width="25" height="24" viewBox="0 0 25 24" fill="none" xmlns="http://www.w3.org/2000/svg">
<g opacity="0.7">
<path fill-rule="evenodd" clip-rule="evenodd" d="M22.5016 9.75281C21.8625 5.81941 18.5215 2.89317 14.5382 2.77798C14.3488 2.77056 14.1643 2.83874 14.0252 2.96752C13.8861 3.09629 13.804 3.27508 13.7968 3.46448V3.46448V3.52855L14.2453 10.2379C14.2747 10.6896 14.663 11.0329 15.1149 11.0068L21.8426 10.5583C22.0321 10.5443 22.2083 10.4552 22.332 10.3109C22.4557 10.1666 22.5168 9.9789 22.5016 9.78942V9.75281Z" stroke="#0077D7" stroke-width="1.5" stroke-linecap="round" stroke-linejoin="round"/>
<path d="M9.87905 6.7689C10.307 6.66991 10.7449 6.88888 10.9225 7.29064C10.969 7.38513 10.997 7.48767 11.0049 7.5927C11.0964 8.89247 11.2887 11.7391 11.3985 13.2769C11.4173 13.5539 11.5456 13.812 11.7552 13.9941C11.9648 14.1762 12.2383 14.2673 12.5152 14.2472V14.2472L18.1628 13.8993C18.4149 13.8842 18.6621 13.9739 18.8458 14.1472C19.0296 14.3205 19.1335 14.5621 19.133 14.8147V14.8147C18.9042 18.225 16.4539 21.0761 13.1167 21.8151C9.77955 22.5541 6.35472 21.0041 4.70742 18.0092C4.21567 17.1472 3.90426 16.1943 3.79209 15.2083C3.74414 14.9056 3.72575 14.5991 3.73717 14.2929C3.74689 10.6509 6.30468 7.51286 9.86989 6.7689" stroke="#0077D7" stroke-width="1.5" stroke-linecap="round" stroke-linejoin="round"/>
</g>
</svg>
