<svg width="25" height="24" viewBox="0 0 25 24" fill="none" xmlns="http://www.w3.org/2000/svg">
<path fill-rule="evenodd" clip-rule="evenodd" d="M3.65488 13.7871V13.5682C3.687 12.9203 3.89465 12.2925 4.25641 11.7496C4.85855 11.0975 5.27076 10.2983 5.44977 9.43601C5.44977 8.76953 5.44977 8.09353 5.50798 7.42706C5.80874 4.21845 8.98133 2.00003 12.1151 2.00003H12.1927C15.3265 2.00003 18.4991 4.21845 18.8096 7.42706C18.8678 8.09353 18.8096 8.76953 18.8581 9.43601C19.0395 10.3003 19.4513 11.102 20.0514 11.7592C20.4159 12.2972 20.6239 12.9227 20.653 13.5682V13.7776C20.6746 14.6481 20.3748 15.4968 19.8089 16.1674C19.061 16.9515 18.0462 17.4393 16.9565 17.5385C13.761 17.8812 10.5371 17.8812 7.34168 17.5385C6.2532 17.435 5.23981 16.9479 4.48926 16.1674C3.93205 15.4963 3.63629 14.6526 3.65488 13.7871Z" stroke="#200E32" stroke-width="1.31108" stroke-linecap="round" stroke-linejoin="round"/>
<path d="M9.70862 20.8518C10.2079 21.4785 10.9411 21.884 11.7459 21.9788C12.5507 22.0735 13.3609 21.8495 13.9969 21.3564C14.1926 21.2106 14.3686 21.041 14.5209 20.8518" stroke="#200E32" stroke-width="1.31108" stroke-linecap="round" stroke-linejoin="round"/>
</svg>
