<svg width="20" height="20" viewBox="0 0 20 20" fill="none" xmlns="http://www.w3.org/2000/svg">
<path d="M17.8628 2.15165C17.446 1.72383 16.8291 1.56445 16.2538 1.73222L2.84 5.63294C2.23309 5.80155 1.80291 6.28557 1.68703 6.90046C1.56865 7.52625 1.98215 8.32066 2.52237 8.65285L6.71659 11.2307C7.14677 11.4949 7.70199 11.4286 8.05797 11.0696L12.8608 6.23692C13.1025 5.98526 13.5027 5.98526 13.7445 6.23692C13.9862 6.48019 13.9862 6.87446 13.7445 7.12612L8.93333 11.9596C8.57652 12.3178 8.50982 12.8757 8.77243 13.3085L11.3351 17.5448C11.6353 18.0481 12.1521 18.3333 12.719 18.3333C12.7857 18.3333 12.8608 18.3333 12.9275 18.3249C13.5777 18.2411 14.0946 17.7965 14.2864 17.1673L18.263 3.77066C18.4381 3.20023 18.2797 2.57947 17.8628 2.15165Z" fill="#0077D7"/>
</svg>
