<svg width="25" height="24" viewBox="0 0 25 24" stroke="#0077d7" fill="none" xmlns="http://www.w3.org/2000/svg">
<path fill-rule="evenodd" clip-rule="evenodd" d="M21.7844 7.62352L21.162 6.54343C20.6354 5.62951 19.4684 5.31423 18.5533 5.83863V5.83863C18.1176 6.09525 17.5978 6.16806 17.1084 6.04099C16.6191 5.91393 16.2003 5.59743 15.9446 5.16128C15.78 4.88406 15.6916 4.5683 15.6883 4.24595V4.24595C15.7031 3.72913 15.5081 3.22831 15.1477 2.85758C14.7874 2.48685 14.2923 2.27777 13.7752 2.27798H12.5212C12.0147 2.27798 11.529 2.47982 11.1717 2.83885C10.8144 3.19788 10.6149 3.6845 10.6173 4.19103V4.19103C10.6023 5.23683 9.7502 6.07672 8.70429 6.07661C8.38193 6.07326 8.06618 5.98485 7.78896 5.82032V5.82032C6.87378 5.29592 5.70683 5.6112 5.18026 6.52512L4.51207 7.62352C3.98613 8.5363 4.29712 9.70251 5.20772 10.2322V10.2322C5.79962 10.5739 6.16425 11.2055 6.16425 11.889C6.16425 12.5724 5.79962 13.204 5.20772 13.5457V13.5457C4.29828 14.0718 3.98695 15.2352 4.51207 16.1453V16.1453L5.14365 17.2345C5.39037 17.6797 5.80433 18.0082 6.29392 18.1473C6.78351 18.2865 7.30836 18.2248 7.75234 17.9759V17.9759C8.1888 17.7212 8.70891 17.6515 9.19706 17.7821C9.68521 17.9127 10.101 18.233 10.3519 18.6716C10.5164 18.9488 10.6048 19.2646 10.6082 19.5869V19.5869C10.6082 20.6435 11.4647 21.5 12.5212 21.5H13.7752C14.8282 21.5 15.6832 20.649 15.6883 19.5961V19.5961C15.6858 19.0879 15.8866 18.5999 16.2459 18.2406C16.6052 17.8813 17.0932 17.6806 17.6013 17.683C17.9229 17.6916 18.2374 17.7797 18.5166 17.9393V17.9393C19.4294 18.4652 20.5956 18.1543 21.1253 17.2437V17.2437L21.7844 16.1453C22.0395 15.7074 22.1095 15.1859 21.9789 14.6963C21.8484 14.2066 21.528 13.7893 21.0887 13.5366V13.5366C20.6495 13.2839 20.3291 12.8665 20.1985 12.3768C20.068 11.8872 20.138 11.3657 20.3931 10.9279C20.559 10.6382 20.7991 10.3981 21.0887 10.2322V10.2322C21.9939 9.7028 22.3041 8.5434 21.7844 7.63268V7.63268V7.62352Z" stroke="#0077d7" stroke-width="1.5" stroke-linecap="round" stroke-linejoin="round"/>
<ellipse cx="13.1527" cy="11.8891" rx="2.63616" ry="2.63616" stroke="#0077d7" stroke-width="1.5" stroke-linecap="#0077d7" stroke-linejoin="#0077d7"/>
</svg>
