<svg width="25" height="24" viewBox="0 0 25 24" fill="none" xmlns="http://www.w3.org/2000/svg">
<path fill-rule="evenodd" clip-rule="evenodd" d="M8.64791 1.99991H17.3179C20.7079 1.99991 22.9779 4.37991 22.9779 7.91991V16.0909C22.9779 19.6199 20.7079 21.9999 17.3179 21.9999H8.64791C5.25791 21.9999 2.97791 19.6199 2.97791 16.0909V7.91991C2.97791 4.37991 5.25791 1.99991 8.64791 1.99991ZM12.4079 14.9899L17.1579 10.2399C17.4979 9.89991 17.4979 9.34991 17.1579 8.99991C16.8179 8.65991 16.2579 8.65991 15.9179 8.99991L11.7879 13.1299L10.0379 11.3799C9.69791 11.0399 9.13791 11.0399 8.79791 11.3799C8.45791 11.7199 8.45791 12.2699 8.79791 12.6199L11.1779 14.9899C11.3479 15.1599 11.5679 15.2399 11.7879 15.2399C12.0179 15.2399 12.2379 15.1599 12.4079 14.9899Z" fill="#0077D7"/>
</svg>
